# xmcd
#
# Track frame offsets:
#	150
#	7050
#	13839
#	20268
#	26892
#
# Disc length: 438 seconds
#
# Revision: 0
# Processed by: cddbd v1.5.2PL0 Copyright (c) Steve Scherf et al.
# Submitted via: audiograbber 1.83.01
#
DISCID=3501b405
DTITLE=Aqualung - Snippets from the album aqualung
DYEAR=1900
DGENRE=Rhythmic Soul
TTITLE0=Strange and Beautiful ( I put a spell on you )
TTITLE1=Good times gonna come
TTITLE2=Falling out of love
TTITLE3=Can't get you out of my mind
TTITLE4=Halfway to the bottom
EXTD=
EXTT0=
EXTT1=
EXTT2=
EXTT3=
EXTT4=
PLAYORDER=
